# xmcd
#
# Track frame offsets:
#	150
#	18252
#	33132
#	50672
#	65535
#	80332
#	95157
#	110335
#	125690
#	140512
#	158865
#	173550
#	188537
#	202815
#	217727
#
# Disc length: 3118 seconds
#
# Revision: 1
# Processed by: cddbd v1.5.1PL2 Copyright (c) Steve Scherf et al.
# Submitted via: audiograbber 1.83.01
#
DISCID=c10c2c0f
DTITLE=Sound Choice - SC8200
DYEAR=1900
DGENRE=Karaoke Country
TTITLE0=Mattea, Kathy - Nobody'S Gonna Rain On Our Parade
TTITLE1=Loveless, Patty - Lonely Side Of Love, The
TTITLE2=Wright, Michelle - He Would Be Sixteen
TTITLE3=Wariner, Steve - If I Didn'T Love You
TTITLE4=Ducas, George - Teardrops
TTITLE5=Gill, Vince - One More Last Chance
TTITLE6=Keith, Toby - He Ain'T Worth Missing
TTITLE7=Tritt, Travis - Looking Out For Number One
TTITLE8=Jackson, Alan - Chasin' That Neon Rainbow
TTITLE9=Crowell, Rodney - What Kind Of Love
TTITLE10=Lawrence, Tracy - Alibis
TTITLE11=Mavericks - O What A Thrill
TTITLE12=Chestnutt, Mark - It Sure Is Monday
TTITLE13=Stone, Doug - Made For Lovin' You
TTITLE14=Boy Howdy - They Don'T Make'Em Like That Anymore
EXTD=
EXTT0=
EXTT1=
EXTT2=
EXTT3=
EXTT4=
EXTT5=
EXTT6=
EXTT7=
EXTT8=
EXTT9=
EXTT10=
EXTT11=
EXTT12=
EXTT13=
EXTT14=
PLAYORDER=
